<?xml version="1.0" encoding="UTF-8" standalone="no"?>
<svg
   width="1052pt"
   height="1052pt"
   version="1.1"
   viewBox="0 0 1052 1052"
   id="svg2"
   xmlns="http://www.w3.org/2000/svg"
   xmlns:svg="http://www.w3.org/2000/svg">
  <defs
     id="defs2" />
  <g
     id="g3"
     transform="translate(0.91112036,204.44086)"
     style="fill:#40c4ff;fill-opacity:1">
    <path
       d="M 1012.8608,288.17846 H 37.860776 c -12.988,1.125 -24.691,8.2969 -31.5860005,19.363 -6.89839998,11.062 -8.1875,24.73 -3.4766,36.887 l 76.5000005,243.75 c 4.0859,15.844 13.242,29.918 26.074004,40.074 12.82799,10.152 28.62899,15.836 44.98799,16.176 h 750.00001 c 16.23,-0.5 31.859,-6.2539 44.535,-16.398 12.68,-10.145 21.727,-24.129 25.777,-39.852 l 76.68802,-243.75 c 4.6953,-12.07 3.4727,-25.641 -3.2969,-36.684 -6.7734,-11.039 -18.316,-18.277 -31.203,-19.566 z m -750.00003,225 c -14.918,0 -29.227,-5.9258 -39.773,-16.477 -10.551,-10.547 -16.477,-24.855 -16.477,-39.773 0,-14.918 5.9258,-29.227 16.477,-39.773 10.547,-10.551 24.855,-16.477 39.773,-16.477 14.918,0 29.227,5.9258 39.773,16.477 10.551,10.547 16.47701,24.855 16.47701,39.773 0,14.918 -5.92581,29.227 -16.47701,39.773 -10.547,10.551 -24.855,16.477 -39.773,16.477 z m 262.50001,0 c -14.918,0 -29.227,-5.9258 -39.773,-16.477 -10.551,-10.547 -16.477,-24.855 -16.477,-39.773 0,-14.918 5.9258,-29.227 16.477,-39.773 10.547,-10.551 24.855,-16.477 39.773,-16.477 14.918,0 29.227,5.9258 39.773,16.477 10.551,10.547 16.477,24.855 16.477,39.773 0,14.918 -5.9258,29.227 -16.477,39.773 -10.547,10.551 -24.855,16.477 -39.773,16.477 z m 262.5,0 c -14.918,0 -29.227,-5.9258 -39.773,-16.477 -10.551,-10.547 -16.477,-24.855 -16.477,-39.773 0,-14.918 5.9258,-29.227 16.477,-39.773 10.547,-10.551 24.855,-16.477 39.773,-16.477 14.918,0 29.227,5.9258 39.773,16.477 10.551,10.547 16.477,24.855 16.477,39.773 0,14.918 -5.9258,29.227 -16.477,39.773 -10.547,10.551 -24.855,16.477 -39.773,16.477 z"
       id="path1"
       style="fill:#40c4ff;fill-opacity:1" />
    <rect
       style="fill:#40c4ff;fill-opacity:1;stroke:#000000;stroke-width:0;stroke-linecap:round;stroke-linejoin:round;stroke-dasharray:none;stroke-opacity:0"
       id="rect2"
       width="285.45999"
       height="344.88937"
       x="191.85284"
       y="-1.3101708"
       rx="50"
       ry="50" />
    <rect
       style="fill:#40c4ff;fill-opacity:1;stroke:#000000;stroke-width:0;stroke-linecap:round;stroke-linejoin:round;stroke-dasharray:none;stroke-opacity:0"
       id="rect2-3"
       width="285.45999"
       height="225.57066"
       x="576.28296"
       y="160.47554"
       rx="50"
       ry="50" />
  </g>
</svg>
