<?xml version="1.0" encoding="UTF-8" standalone="no"?>
<svg
   viewBox="0 0 640 640"
   version="1.1"
   id="svg1"
   width="640"
   height="640"
   xmlns="http://www.w3.org/2000/svg"
   xmlns:svg="http://www.w3.org/2000/svg">
  <defs
     id="defs1" />
  <!--!Font Awesome Free 6.5.1 by @fontawesome - https://fontawesome.com License - https://fontawesome.com/license/free Copyright 2024 Fonticons, Inc.-->
  <path
     d="M 48,64 C 21.5,64 0,85.5 0,112 v 320 c 0,26.5 21.5,48 48,48 h 16 c 0,53 43,96 96,96 53,0 96,-43 96,-96 h 128 c 0,53 43,96 96,96 53,0 96,-43 96,-96 h 32 c 17.7,0 32,-14.3 32,-32 0,-17.7 -14.3,-32 -32,-32 v -64 -32 -18.7 c 0,-17 -6.7,-33.3 -18.7,-45.3 L 512,178.7 C 500,166.7 483.7,160 466.7,160 H 416 V 112 C 416,85.5 394.5,64 368,64 Z m 368,160 h 50.7 L 544,301.3 V 320 H 416 Z M 112,480 a 48,48 0 1 1 96,0 48,48 0 1 1 -96,0 z m 368,-48 a 48,48 0 1 1 0,96 48,48 0 1 1 0,-96 z"
     id="path1"
     style="fill:#7c4dff;fill-opacity:1" />
</svg>
