<?xml version="1.0" encoding="UTF-8" standalone="no"?>
<svg
   viewBox="0 0 576 576"
   version="1.1"
   id="svg1"
   width="576"
   height="576"
   xmlns="http://www.w3.org/2000/svg"
   xmlns:svg="http://www.w3.org/2000/svg">
  <defs
     id="defs1" />
  <!--!Font Awesome Free 6.5.1 by @fontawesome - https://fontawesome.com License - https://fontawesome.com/license/free Copyright 2024 Fonticons, Inc.-->
  <path
     d="m 482.3,224 c 34.2,0 93.7,29 93.7,64 0,36 -59.5,64 -93.7,64 H 365.7 L 265.2,527.9 c -5.7,10 -16.3,16.1 -27.8,16.1 h -56.2 c -10.6,0 -18.3,-10.2 -15.4,-20.4 L 214.8,352 H 112 l -43.2,57.6 c -3,4 -7.8,6.4 -12.8,6.4 H 14 c -7.8,0 -14,-6.3 -14,-14 0,-1.3 0.2,-2.6 0.5,-3.9 L 32,288 0.5,177.9 C 0.1,176.6 0,175.3 0,174 0,166.2 6.3,160 14,160 h 42 c 5,0 9.8,2.4 12.8,6.4 L 112,224 H 214.9 L 165.9,52.4 C 162.9,42.2 170.6,32 181.2,32 h 56.2 c 11.5,0 22.1,6.2 27.8,16.1 L 365.7,224 Z"
     id="path1"
     style="fill:#ffa500;fill-opacity:1" />
</svg>
