<?xml version="1.0" encoding="UTF-8" standalone="no"?>
<svg
   version="1.1"
   x="0px"
   y="0px"
   viewBox="0 0 20 20"
   xml:space="preserve"
   id="svg3"
   width="20"
   height="20"
   xmlns="http://www.w3.org/2000/svg"
   xmlns:svg="http://www.w3.org/2000/svg"><defs
     id="defs3" /><g
     id="g3"
     style="fill:#800080;fill-opacity:1"
     transform="translate(-2,-2)"><path
       d="M 15,14 H 9 3 2 v 1 h 1 v 1 c 0,0.552 0.448,1 1,1 0.552,0 1,-0.448 1,-1 h 2 c 0,0.552 0.448,1 1,1 0.552,0 1,-0.448 1,-1 v -1 h 6 v 1 c 0,0.552 0.448,1 1,1 0.552,0 1,-0.448 1,-1 h 2 c 0,0.552 0.448,1 1,1 0.552,0 1,-0.448 1,-1 v -1 h 1 v -1 h -1 z"
       id="path1"
       style="fill:#800080;fill-opacity:1" /><path
       d="M 3,13 H 21 V 7 H 3 Z M 17,9 h 2 v 2 h -2 z m -3,0 h 2 v 2 h -2 z m -3,0 h 2 v 2 H 11 Z M 8,9 h 2 v 2 H 8 Z M 5,9 h 2 v 2 H 5 Z"
       id="path2"
       style="fill:#800080;fill-opacity:1" /></g></svg>
